# Blender 4.4.3
# www.blender.org
mtllib coin.mtl
o coin
v 0.000000 -0.004479 -0.031239
v 0.000000 0.004479 -0.031239
v 0.011955 -0.004479 -0.028861
v 0.011955 0.004479 -0.028861
v 0.022089 -0.004479 -0.022089
v 0.022089 0.004479 -0.022089
v 0.028861 -0.004479 -0.011955
v 0.028861 0.004479 -0.011955
v 0.031239 -0.004479 -0.000000
v 0.031239 0.004479 -0.000000
v 0.028861 -0.004479 0.011955
v 0.028861 0.004479 0.011955
v 0.022089 -0.004479 0.022089
v 0.022089 0.004479 0.022089
v 0.011955 -0.004479 0.028861
v 0.011955 0.004479 0.028861
v 0.000000 -0.004479 0.031239
v 0.000000 0.004479 0.031239
v -0.011955 -0.004479 0.028861
v -0.011955 0.004479 0.028861
v -0.022089 -0.004479 0.022089
v -0.022089 0.004479 0.022089
v -0.028861 -0.004479 0.011955
v -0.028861 0.004479 0.011955
v -0.031239 -0.004479 -0.000000
v -0.031239 0.004479 -0.000000
v -0.028861 -0.004479 -0.011955
v -0.028861 0.004479 -0.011955
v -0.022089 -0.004479 -0.022089
v -0.022089 0.004479 -0.022089
v -0.011955 -0.004479 -0.028861
v -0.011955 0.004479 -0.028861
vn 0.1951 -0.0000 -0.9808
vn 0.5556 -0.0000 -0.8315
vn 0.8315 -0.0000 -0.5556
vn 0.9808 -0.0000 -0.1951
vn 0.9808 -0.0000 0.1951
vn 0.8315 -0.0000 0.5556
vn 0.5556 -0.0000 0.8315
vn 0.1951 -0.0000 0.9808
vn -0.1951 -0.0000 0.9808
vn -0.5556 -0.0000 0.8315
vn -0.8315 -0.0000 0.5556
vn -0.9808 -0.0000 0.1951
vn -0.9808 -0.0000 -0.1951
vn -0.8315 -0.0000 -0.5556
vn -0.0000 1.0000 -0.0000
vn -0.5556 -0.0000 -0.8315
vn -0.1951 -0.0000 -0.9808
vn -0.0000 -1.0000 -0.0000
vt 0.963277 0.018216
vt 0.963277 0.074206
vt 0.906100 0.074206
vt 0.906100 0.018216
vt 0.848922 0.074206
vt 0.848922 0.018216
vt 0.791745 0.074206
vt 0.791745 0.018216
vt 0.734568 0.074206
vt 0.734568 0.018216
vt 0.677391 0.074206
vt 0.677391 0.018216
vt 0.620214 0.074206
vt 0.620214 0.018216
vt 0.563037 0.074206
vt 0.563037 0.018216
vt 0.505859 0.074206
vt 0.505859 0.018216
vt 0.448682 0.074206
vt 0.448682 0.018216
vt 0.391505 0.074206
vt 0.391505 0.018216
vt 0.334328 0.074206
vt 0.334328 0.018216
vt 0.277151 0.074206
vt 0.277151 0.018216
vt 0.219973 0.074206
vt 0.219973 0.018216
vt 0.162796 0.074206
vt 0.162796 0.018216
vt 0.668634 0.869908
vt 0.519734 0.899526
vt 0.370835 0.869908
vt 0.244604 0.785563
vt 0.160259 0.659333
vt 0.130641 0.510433
vt 0.160259 0.361533
vt 0.244604 0.235303
vt 0.370835 0.150958
vt 0.519734 0.121340
vt 0.668634 0.150958
vt 0.794865 0.235303
vt 0.879209 0.361533
vt 0.908827 0.510433
vt 0.879209 0.659333
vt 0.794865 0.785563
vt 0.105619 0.074206
vt 0.105619 0.018216
vt 0.048442 0.074206
vt 0.048442 0.018216
vt 0.560547 0.882526
vt 0.712165 0.852367
vt 0.840701 0.766482
vt 0.926586 0.637946
vt 0.956744 0.486328
vt 0.926586 0.334710
vt 0.840701 0.206174
vt 0.712165 0.120289
vt 0.560547 0.090131
vt 0.408929 0.120289
vt 0.280393 0.206174
vt 0.194508 0.334710
vt 0.164349 0.486328
vt 0.194508 0.637946
vt 0.280393 0.766482
vt 0.408929 0.852367
s 0
usemtl c_1
f 1/1/1 2/2/1 4/3/1 3/4/1
f 3/4/2 4/3/2 6/5/2 5/6/2
f 5/6/3 6/5/3 8/7/3 7/8/3
f 7/8/4 8/7/4 10/9/4 9/10/4
f 9/10/5 10/9/5 12/11/5 11/12/5
f 11/12/6 12/11/6 14/13/6 13/14/6
f 13/14/7 14/13/7 16/15/7 15/16/7
f 15/16/8 16/15/8 18/17/8 17/18/8
f 17/18/9 18/17/9 20/19/9 19/20/9
f 19/20/10 20/19/10 22/21/10 21/22/10
f 21/22/11 22/21/11 24/23/11 23/24/11
f 23/24/12 24/23/12 26/25/12 25/26/12
f 25/26/13 26/25/13 28/27/13 27/28/13
f 27/28/14 28/27/14 30/29/14 29/30/14
f 4/31/15 2/32/15 32/33/15 30/34/15 28/35/15 26/36/15 24/37/15 22/38/15 20/39/15 18/40/15 16/41/15 14/42/15 12/43/15 10/44/15 8/45/15 6/46/15
f 29/30/16 30/29/16 32/47/16 31/48/16
f 31/48/17 32/47/17 2/49/17 1/50/17
usemtl c_2
f 1/51/18 3/52/18 5/53/18 7/54/18 9/55/18 11/56/18 13/57/18 15/58/18 17/59/18 19/60/18 21/61/18 23/62/18 25/63/18 27/64/18 29/65/18 31/66/18
